Coordinates
version=1
nRows=30
nColumns=19
inDegrees=yes

Units are S.I. units (second, meters, Newtons, ...)
If the header above contains a line with 'inDegrees', this indicates whether rotational values are in degrees (yes) or radians (no).

endheader
time	pelvis_tilt	pelvis_list	pelvis_rotation	pelvis_tx	pelvis_ty	pelvis_tz	hip_flexion_r	hip_adduction_r	hip_rotation_r	knee_angle_r	knee_angle_r_beta	ankle_angle_r	hip_flexion_l	hip_adduction_l	hip_rotation_l	knee_angle_l	knee_angle_l_beta	ankle_angle_l
     15.20000000	     -4.63052433	     -6.23539142	      1.75152280	      2.14202189	      0.87081544	      0.98691489	     34.40808545	      6.83217925	     -7.39154704	     14.93111173	      0.26059706	      5.66370257	    -25.01547077	     -6.93174027	     -4.16848811	     70.74933963	      1.23480892	    -27.06265131
     15.20666667	     -3.86045340	     -6.79409972	      0.87461722	      2.14158259	      0.86721465	      0.98665001	     34.16060073	      7.52605767	     -8.69845550	     18.32657564	      0.31985909	      5.08119852	    -24.64536983	     -7.07954481	     -4.74757488	     75.43861759	      1.31665226	    -27.77363595
     15.21333333	     -3.77210558	     -7.01348056	     -0.22101544	      2.14098480	      0.86237192	      0.98661896	     34.85362020	      7.80367149	     -9.75903266	     22.56700684	      0.39386857	      4.65437512	    -23.44093032	     -6.83691899	     -5.32894365	     80.15516538	      1.39897155	    -28.21465713
     15.22000000	     -3.30101720	     -7.34014957	     -1.39047248	      2.14035352	      0.85756685	      0.98670762	     35.02552749	      8.17872024	    -10.58911049	     26.91434191	      0.46974388	      4.44082626	    -22.69197509	     -6.83757973	     -6.27682858	     84.65401474	      1.47749128	    -28.46310402
     15.22666667	     -2.42793346	     -7.91869050	     -2.58158161	      2.13973341	      0.85298224	      0.98693227	     34.55360756	      8.80263618	    -11.16663892	     31.13387903	      0.54338870	      4.46792574	    -22.44172997	     -7.25944831	     -7.54831597	     88.92100811	      1.55196437	    -28.55780705
     15.23333333	     -2.45313984	     -7.74255426	     -3.97721842	      2.13866429	      0.84737487	      0.98746776	     35.12687821	      8.86188419	    -10.73105689	     35.72809198	      0.62357284	      5.28005574	    -20.90926867	     -6.77400362	     -8.37220683	     93.23832051	      1.62731568	    -28.27724126
     15.24000000	     -2.21522761	     -7.82384534	     -5.32895194	      2.13746681	      0.84226088	      0.98824576	     35.12546926	      9.28269571	    -10.01909126	     39.90260819	      0.69643189	      6.39405249	    -19.62386551	     -6.78589730	     -9.36483783	     97.35522573	      1.69916923	    -28.00480865
     15.24666667	     -1.98531161	     -7.77306168	     -6.65466951	      2.13592561	      0.83751175	      0.98926540	     34.93327928	      9.72241127	     -8.83034680	     43.80440528	      0.76453110	      8.02875621	    -18.13992952	     -6.79327864	    -10.23167663	    101.32460012	      1.76844789	    -27.54434953
     15.25333333	     -1.25388353	     -8.17262168	     -7.49542292	      2.13430792	      0.83404285	      0.99015972	     33.73967726	     10.40814269	     -7.98237982	     47.01154550	      0.82050626	      9.96523798	    -17.05281191	     -7.57532957	    -10.77162789	    105.09624666	      1.83427554	    -27.27425611
     15.26000000	     -1.63441646	     -7.52653248	     -8.89761540	      2.13193989	      0.82981254	      0.99175378	     33.82807801	     10.64903835	     -5.87638357	     50.32015199	      0.87825233	     12.37685858	    -14.32294863	     -7.18403120	    -11.24255343	    108.79156175	      1.89877095	    -26.47391336
     15.26666667	     -1.72367506	     -7.28241944	     -9.61049936	      2.12966133	      0.82693648	      0.99295444	     33.07665849	     10.90106370	     -4.51897199	     52.78884955	      0.92133923	     14.92106093	    -11.62601990	     -7.57986043	    -11.11912111	    112.26662615	      1.95942227	    -26.03737714
     15.27333333	     -1.19446443	     -7.34727458	    -10.05303409	      2.12736367	      0.82557755	      0.99394533	     31.19325513	     11.22994835	     -3.39314754	     54.54502064	      0.95199020	     17.52451669	     -9.48720369	     -8.35228100	    -10.77725265	    115.32770746	      2.01284821	    -25.65011790
     15.28000000	     -1.61586359	     -6.77391424	    -10.28973155	      2.12490008	      0.82409497	      0.99469122	     30.21602976	     10.93886747	     -2.22384516	     55.97216931	      0.97689864	     19.97128722	     -5.71817156	     -8.52062638	     -9.85784979	    118.20505712	      2.06306744	    -25.24819109
     15.28666667	     -0.79277977	     -6.48145587	    -10.74600952	      2.12433860	      0.82530747	      0.99546315	     27.17234948	     10.72176447	     -0.85281401	     56.49862760	      0.98608707	     22.43692462	     -3.74346740	     -8.65387639	     -9.48449493	    119.73256406	      2.08972746	    -25.25349430
     15.29333333	      1.62884558	     -6.27225244	    -11.16769189	      2.12560968	      0.82960848	      0.99583992	     21.75309945	     10.03762051	      0.53366958	     56.14089271	      0.97984342	     24.67566130	     -3.85218282	     -8.33582520	     -9.43551575	    119.89367568	      2.09253939	    -25.50554592
     15.30000000	      3.49308046	     -5.79545931	    -11.25114143	      2.12656287	      0.83382801	      0.99599415	     16.80260758	      8.90690527	      1.54939204	     55.25418201	      0.96436740	     26.50328150	     -3.02482750	     -7.85064534	     -8.96976784	    119.92860988	      2.09314911	    -25.46438308
     15.30666667	      4.84492602	     -5.27626805	    -10.94185716	      2.12704437	      0.83782997	      0.99590373	     12.26590973	      7.65817814	      2.01442562	     53.83624427	      0.93961972	     27.76402775	     -1.39157281	     -7.49403598	     -8.09963575	    119.94141183	      2.09337255	    -25.08240255
     15.31333333	      5.35452796	     -4.45119755	    -10.34795654	      2.12693579	      0.84114713	      0.99562572	      8.68580703	      6.21065308	      2.05778705	     52.18512455	      0.91080224	     28.43618260	      1.47294100	     -6.90707949	     -6.88421089	    119.94623334	      2.09345670	    -24.34374912
     15.32000000	      5.50928800	     -3.74903571	     -9.47159552	      2.12619420	      0.84404245	      0.99508435	      5.41560197	      4.98180332	      1.65632602	     50.24221228	      0.87689203	     28.56527495	      4.80734772	     -6.46356178	     -5.43637442	    119.94510112	      2.09343694	    -23.07315774
     15.32666667	      4.73581772	     -3.05759758	     -8.33753465	      2.12500508	      0.84597592	      0.99428231	      3.18804750	      3.98264508	      0.83386088	     48.23431318	      0.84184758	     28.03245817	      9.31167284	     -6.02047735	     -3.73408256	    119.93905906	      2.09333148	    -21.54033902
     15.33333333	      3.37549301	     -2.64355697	     -6.94728459	      2.12334268	      0.84706306	      0.99316682	      1.59710850	      3.43929517	     -0.33890192	     46.16780580	      0.80578022	     26.87488361	     14.52207397	     -5.73555872	     -1.77826122	    119.92287137	      2.09304895	    -19.72997120
     15.34000000	      1.43835821	     -2.61549797	     -5.33041763	      2.12134203	      0.84714852	      0.99170054	      0.68036175	      3.40640824	     -1.87064179	     44.15063151	      0.77057389	     25.13044345	     20.41653768	     -5.58027379	      0.47705663	    119.87891633	      2.09228179	    -17.82409986
     15.34666667	     -0.93586648	     -2.96059822	     -3.76636619	      2.11932185	      0.84649896	      0.99005682	      0.32039644	      3.79684772	     -3.47523528	     42.19254334	      0.73639880	     22.81609750	     26.71573852	     -5.52999985	      2.72716149	    119.61795947	      2.08772724	    -15.83967780
     15.35333333	     -1.75099276	     -2.88613235	     -2.87838881	      2.11975636	      0.84898884	      0.98942403	     -2.06835255	      3.65344617	     -4.44485609	     39.54154376	      0.69013013	     19.74082882	     30.21235189	     -5.09387068	      3.65434963	    117.80929358	      2.05616006	    -14.07225800
     15.36000000	     -1.53590861	     -2.34855029	     -2.38111769	      2.12160862	      0.85362117	      0.98941461	     -5.71384585	      2.98928721	     -5.17175864	     36.46971169	      0.63651655	     15.93340558	     31.81612607	     -4.36580776	      3.64562164	    114.96085598	      2.00644545	    -12.34432925
     15.36666667	     -1.59878435	     -1.80545232	     -1.98815072	      2.12370384	      0.85818104	      0.98956350	     -8.93885256	      2.37491139	     -5.94774271	     33.40899942	      0.58309704	     11.53154532	     33.48906015	     -3.74752599	      3.45339798	    111.76636456	      1.95069105	    -10.77653078
     15.37333333	     -1.48397624	     -1.19840595	     -1.82602101	      2.12604092	      0.86312567	      0.99004047	    -12.21511472	      1.67612033	     -6.69850215	     30.37691768	      0.53017723	      6.61092847	     34.64933259	     -3.29447234	      2.88353829	    108.16968891	      1.88791722	     -9.31084351
     15.38000000	     -1.61512843	     -0.65953783	     -1.69987779	      2.12851456	      0.86785204	      0.99052349	    -15.05755639	      1.07502994	     -7.56210963	     27.44947180	      0.47908366	      1.31675628	     35.89007888	     -2.97070652	      2.26839959	    104.31773453	      1.82068794	     -8.00753033
     15.38666667	     -1.70251926	     -0.10206030	     -1.69849481	      2.13114218	      0.87258528	      0.99120425	    -17.77656929	      0.43394488	     -8.50051929	     24.65493574	      0.43030981	     -4.08927612	     36.84465196	     -2.82370710	      1.40184202	    100.15435678	      1.74802329	     -6.87877632
     15.39333333	     -1.86533005	      0.42938202	     -1.81317938	      2.13386043	      0.87712444	      0.99196996	    -20.21576097	     -0.21234477	     -9.50425463	     22.07306080	      0.38524759	     -9.41151342	     37.66175669	     -2.83250553	      0.35292350	     95.73379434	      1.67086992	     -5.88976075
